<svg xmlns="http://www.w3.org/2000/svg" width="340" height="165" viewBox="0 0 340 165">
<style>* { font-family: 'Segoe UI', Ubuntu, 'Helvetica Neue', Sans-Serif; }</style>
<rect x="1" y="1" rx="5" ry="5" width="338" height="163" fill="#1a1b27" stroke="#30363d" stroke-width="1"/>
<text x="14" y="14" font-size="15" fill="#70a5fd" font-weight="600">Top Languages</text>
<rect x="14" y="20" width="11" height="11" rx="2" fill="#F05138"/>
<text x="30" y="29" font-size="12" fill="#a9b1d6">Swift</text>
<text x="172" y="29" font-size="12" fill="#38bdae" font-weight="600">45.0%</text>
<rect x="14" y="44" width="11" height="11" rx="2" fill="#89e051"/>
<text x="30" y="53" font-size="12" fill="#a9b1d6">Shell</text>
<text x="172" y="53" font-size="12" fill="#38bdae" font-weight="600">23.7%</text>
<rect x="14" y="68" width="11" height="11" rx="2" fill="#7e7eff"/>
<text x="30" y="77" font-size="12" fill="#a9b1d6">Nix</text>
<text x="172" y="77" font-size="12" fill="#38bdae" font-weight="600">22.2%</text>
<rect x="14" y="92" width="11" height="11" rx="2" fill="#3178c6"/>
<text x="30" y="101" font-size="12" fill="#a9b1d6">TypeScript</text>
<text x="172" y="101" font-size="12" fill="#38bdae" font-weight="600">4.4%</text>
<rect x="14" y="116" width="11" height="11" rx="2" fill="#e34c26"/>
<text x="30" y="125" font-size="12" fill="#a9b1d6">HTML</text>
<text x="172" y="125" font-size="12" fill="#38bdae" font-weight="600">2.5%</text>
<rect x="14" y="140" width="11" height="11" rx="2" fill="#427819"/>
<text x="30" y="149" font-size="12" fill="#a9b1d6">Makefile</text>
<text x="172" y="149" font-size="12" fill="#38bdae" font-weight="600">1.6%</text>
<path d="M 268.0,25.0 A 58,58 0 0,1 285.9,138.2 L 278.5,115.3 A 34,34 0 0,0 268.0,49.0 Z" fill="#F05138"/>
<path d="M 285.9,138.2 A 58,58 0 0,1 214.5,105.4 L 236.6,96.1 A 34,34 0 0,0 278.5,115.3 Z" fill="#89e051"/>
<path d="M 214.5,105.4 A 58,58 0 0,1 236.6,34.2 L 249.6,54.4 A 34,34 0 0,0 236.6,96.1 Z" fill="#7e7eff"/>
<path d="M 236.6,34.2 A 58,58 0 0,1 251.1,27.5 L 258.1,50.5 A 34,34 0 0,0 249.6,54.4 Z" fill="#3178c6"/>
<path d="M 251.1,27.5 A 58,58 0 0,1 260.0,25.6 L 263.3,49.3 A 34,34 0 0,0 258.1,50.5 Z" fill="#e34c26"/>
<path d="M 260.0,25.6 A 58,58 0 0,1 265.8,25.0 L 266.7,49.0 A 34,34 0 0,0 263.3,49.3 Z" fill="#427819"/>
<path d="M 265.8,25.0 A 58,58 0 0,1 267.3,25.0 L 267.6,49.0 A 34,34 0 0,0 266.7,49.0 Z" fill="#3572A5"/>
<path d="M 267.3,25.0 A 58,58 0 0,1 267.6,25.0 L 267.8,49.0 A 34,34 0 0,0 267.6,49.0 Z" fill="#f1e05a"/>
</svg>